<?xml version="1.0" encoding="utf-8"?>
<!-- Generator: Adobe Illustrator 28.0.0, SVG Export Plug-In . SVG Version: 6.00 Build 0)  -->
<svg version="1.1" id="Слой_1" xmlns="http://www.w3.org/2000/svg" xmlns:xlink="http://www.w3.org/1999/xlink" x="0px" y="0px"
	 viewBox="0 0 883.3325806 1000" enable-background="new 0 0 883.3325806 1000" xml:space="preserve">
<g>
	<path fill="#95BF47" d="M773.1859741,192.2582092c-0.7199097-5.0393982-5.0393677-7.9190369-8.638916-7.9190369
		s-74.8709106-1.4398346-74.8709106-1.4398346s-59.7527466-57.5929947-65.5120239-64.0722046
		c-5.7593384-5.7592926-17.2778931-4.3194809-21.5973511-2.8796463c0,0-11.5186157,3.5995636-30.2363281,9.3588562
		c-2.8796387-10.0787735-7.9190063-22.3172913-14.3982544-35.2757111
		c-20.8774414-40.315094-52.5536194-61.9124718-89.9890442-61.9124718l0,0c-2.8796692,0-5.0393677,0-7.9190369,0.7199116
		c-1.4398193-1.4398232-2.159729-2.8796501-3.5995483-3.5995617C439.8665771,7.9606109,418.9891052-0.6783374,393.7921753,0.0415744
		c-48.2341309,1.4398248-96.4682617,36.715538-136.063446,98.628006
		c-27.3566589,43.9146652-48.2341309,98.6280136-54.7133484,141.1028137
		c-55.4332428,17.2779236-94.3085327,29.5164185-95.7483521,29.5164185
		c-28.0765915,8.6389465-28.7965012,9.3588562-32.3960571,35.9956055C73.4310684,325.4419861,0,893.4529419,0,893.4529419
		L616.2450562,1000l267.0875244-66.2319336C882.6126709,933.7680664,773.9058838,197.2975922,773.1859741,192.2582092z
		 M541.3741455,135.3851318c-14.3982544,4.3194733-30.2362976,9.3588562-47.5142212,15.1181641
		c0-24.4770279-3.5995483-59.0328217-14.3982544-87.8293228
		C516.1771851,68.4332581,534.1749878,110.1881866,541.3741455,135.3851318z M461.4638672,159.8621521
		c-32.3960571,10.0787659-67.6717834,20.8774567-102.9474792,31.6761475
		c10.0787964-38.155365,28.7965088-75.5908127,51.8337097-100.7877502
		c8.6389465-9.3588638,20.8774719-19.4376373,34.5557861-25.1969376
		C459.3041382,93.6301956,462.1837769,133.2253876,461.4638672,159.8621521z M395.2319336,32.4376411
		c11.5186157,0,20.8774719,2.1597404,28.7965088,7.9190369c-12.9584045,6.4792137-25.9168396,16.5579872-37.4354553,29.5164146
		c-30.9562378,33.1159744-54.7133179,84.2297516-64.0721741,133.903717
		c-29.5164185,9.3588562-58.3128967,17.997818-84.2297821,25.9168396
		C255.568924,151.2231903,321.0809326,34.5973778,395.2319336,32.4376411z"/>
	<g>
		<path fill="#5E8E3E" d="M764.5469971,184.3391724c-3.5995483,0-74.8709106-1.4398346-74.8709106-1.4398346
			s-59.7527466-57.5929947-65.5120239-64.0722046c-2.159729-2.159729-5.0393677-3.5995636-7.9190063-3.5995636V1000
			l267.0875244-66.2319336c0,0-108.7067871-736.470459-109.4266968-741.5098267
			C772.4660645,187.218811,768.1465454,184.3391724,764.5469971,184.3391724z"/>
		<path fill="#FFFFFF" d="M467.9430847,321.8424377l-30.9562073,115.9058838c0,0-34.5558167-15.8380737-75.5908203-12.9584045
			c-60.4726257,3.5995483-60.4726257,41.7549133-60.4726257,51.1138
			c3.5995483,51.8336487,139.6630249,63.3523254,147.5820618,185.0174866
			c5.7592773,95.7483521-50.3938904,161.260376-132.4639282,166.2997437
			c-97.9080963,5.0394287-151.901535-52.5535889-151.901535-52.5535889l20.8774567-88.5492554
			c0,0,54.7133484,41.0350342,97.9081116,38.1553955c28.0765991-1.4398193,38.8752747-25.1968994,37.4354553-41.0349731
			c-4.3194885-67.671814-115.1860046-63.3522949-122.3851318-174.9387512
			c-5.7592926-93.588623,55.4332733-187.8971558,190.7767944-196.5361023
			C441.3063354,308.1641235,467.9430847,321.8424377,467.9430847,321.8424377z"/>
	</g>
</g>
</svg>
